<svg xmlns="http://www.w3.org/2000/svg" viewBox="0 0 960 1200" role="img" aria-labelledby="title desc">
  <title id="title">Портретный placeholder</title>
  <desc id="desc">Нейтральная графическая заглушка для фотографии профиля</desc>
  <defs>
    <linearGradient id="bg" x1="0" x2="1" y1="0" y2="1">
      <stop offset="0" stop-color="#0c7167"/>
      <stop offset="0.52" stop-color="#2457a4"/>
      <stop offset="1" stop-color="#c9523a"/>
    </linearGradient>
    <linearGradient id="suit" x1="0" x2="1" y1="0" y2="1">
      <stop offset="0" stop-color="#171612"/>
      <stop offset="1" stop-color="#39342d"/>
    </linearGradient>
    <filter id="softShadow" x="-20%" y="-20%" width="140%" height="140%">
      <feDropShadow dx="0" dy="28" stdDeviation="28" flood-color="#171612" flood-opacity="0.28"/>
    </filter>
  </defs>
  <rect width="960" height="1200" fill="#171612"/>
  <rect width="960" height="1200" fill="url(#bg)" opacity="0.9"/>
  <path d="M120 174h720M120 1026h720" stroke="#f8f2e8" stroke-opacity="0.22" stroke-width="4"/>
  <path d="M-80 918c168-120 319-161 493-122 221 50 353-38 627-112v516H-80z" fill="#f8f2e8" opacity="0.12"/>
  <g filter="url(#softShadow)">
    <path d="M237 1040c26-247 126-384 243-384s217 137 243 384z" fill="url(#suit)"/>
    <path d="M388 690h184l-92 238z" fill="#f8f2e8"/>
    <path d="M384 689l96 112 96-112c-18 100-50 176-96 228-46-52-78-128-96-228z" fill="#e1b74d"/>
    <ellipse cx="480" cy="408" rx="158" ry="178" fill="#f0d2a4"/>
    <path d="M309 408c8-152 79-244 196-244 118 0 194 79 218 226-86-22-151-75-196-159-47 87-119 146-218 177z" fill="#26211d"/>
    <path d="M366 524c71 44 157 44 228 0" fill="none" stroke="#c4966c" stroke-linecap="round" stroke-width="14" opacity="0.5"/>
  </g>
  <circle cx="806" cy="234" r="54" fill="#e1b74d" opacity="0.82"/>
  <circle cx="153" cy="802" r="42" fill="#0c7167" opacity="0.82"/>
</svg>
